<?xml version="1.0" standalone="no"?>
<!DOCTYPE svg PUBLIC "-//W3C//DTD SVG 20010904//EN"
 "http://www.w3.org/TR/2001/REC-SVG-20010904/DTD/svg10.dtd">
<svg version="1.0" xmlns="http://www.w3.org/2000/svg"
 width="48.000000pt" height="48.000000pt" viewBox="0 0 48.000000 48.000000"
 preserveAspectRatio="xMidYMid meet">

<g transform="translate(0.000000,48.000000) scale(0.100000,-0.100000)"
fill="#000000" stroke="none">
<path d="M0 240 l0 -240 240 0 240 0 0 240 0 240 -240 0 -240 0 0 -240z m245
55 c20 -72 39 -139 42 -150 4 -15 9 -8 20 30 20 69 37 85 90 85 37 0 44 -3 41
-17 -2 -13 -14 -19 -39 -21 l-36 -3 -24 -87 c-20 -71 -28 -88 -45 -90 -19 -3
-25 12 -63 150 -24 84 -45 155 -46 157 -2 2 -11 -22 -20 -53 -9 -32 -24 -60
-35 -66 -24 -13 -90 -13 -90 0 0 6 0 13 0 18 -1 4 16 9 37 12 l37 5 23 84 c38
141 56 132 108 -54z"/>
</g>
</svg>
