<?xml version="1.0" encoding="UTF-8"?>
<svg version="1.1" xmlns="http://www.w3.org/2000/svg" width="48" height="48">
<path d="M0 0 C15.84 0 31.68 0 48 0 C48 15.84 48 31.68 48 48 C32.16 48 16.32 48 0 48 C0 32.16 0 16.32 0 0 Z " fill="#7C40F2" transform="translate(0,0)"/>
<path d="M0 0 C1.65 0.33 3.3 0.66 5 1 C7.66666667 10.33333333 10.33333333 19.66666667 13 29 C13.26554687 28.37351562 13.53109375 27.74703125 13.8046875 27.1015625 C14.15789063 26.28429687 14.51109375 25.46703125 14.875 24.625 C15.22304688 23.81289063 15.57109375 23.00078125 15.9296875 22.1640625 C17 20 17 20 19 18 C21.68839385 17.73008094 24.29141936 17.91262643 27 18 C27 19.32 27 20.64 27 22 C24.69 22 22.38 22 20 22 C19.83564453 22.94359375 19.83564453 22.94359375 19.66796875 23.90625 C18.61950734 29.56623682 17.17168983 34.6694886 15 40 C13.68 39.67 12.36 39.34 11 39 C10.83395264 38.410979 10.66790527 37.82195801 10.49682617 37.21508789 C9.72922663 34.49693883 8.95838135 31.77972006 8.1875 29.0625 C7.92646484 28.13630859 7.66542969 27.21011719 7.39648438 26.25585938 C5.74612068 20.44902415 3.96611131 14.70780902 2 9 C1.81824219 9.68707031 1.63648438 10.37414063 1.44921875 11.08203125 C1.19785156 11.98308594 0.94648438 12.88414063 0.6875 13.8125 C0.44386719 14.70582031 0.20023438 15.59914063 -0.05078125 16.51953125 C-1.04654901 19.12164041 -1.74454237 20.38287943 -4 22 C-6.72507798 22.39078556 -9.23121956 22.13616953 -12 22 C-12 20.68 -12 19.36 -12 18 C-8.535 17.505 -8.535 17.505 -5 17 C-3.35 11.39 -1.7 5.78 0 0 Z " fill="#F4EFFD" transform="translate(16,4)"/>
</svg>
